<?xml version="1.0" standalone="no"?><!DOCTYPE svg PUBLIC "-//W3C//DTD SVG 1.1//EN" "http://www.w3.org/Graphics/SVG/1.1/DTD/svg11.dtd"><svg t="1763725096050" class="icon" viewBox="0 0 1024 1024" version="1.1" xmlns="http://www.w3.org/2000/svg" p-id="9880" xmlns:xlink="http://www.w3.org/1999/xlink" width="200" height="200"><path d="M992 64H416c-16 0-32 16-32 32v832c0 16 16 32 32 32h576c16 0 32-16 32-32V96c0-16-16-32-32-32z m-32 832H448V128h512v768z" fill="#727272" p-id="9881"></path><path d="M832 384h-256v-64h256v64z m0 320h-256v-64h256v64z" fill="#1177D7" p-id="9882"></path><path d="M128 192v256H64V297.6H0V246.4h6.4c6.4 0 16 0 22.4-3.2 9.6 0 16-3.2 22.4-9.6 6.4-3.2 12.8-9.6 16-16 3.2-6.4 6.4-12.8 9.6-22.4V192H128z m64 576v-51.2H83.2c3.2-6.4 9.6-9.6 12.8-12.8 6.4-6.4 16-12.8 22.4-16 9.6-6.4 16-9.6 25.6-16 9.6-6.4 16-12.8 22.4-19.2 6.4-6.4 12.8-16 16-25.6 3.2-9.6 6.4-19.2 6.4-32s-3.2-22.4-6.4-35.2c-3.2-9.6-12.8-19.2-19.2-25.6-9.6-6.4-16-12.8-28.8-16-9.6-3.2-22.4-6.4-32-6.4-16 0-28.8 3.2-41.6 6.4-12.8 6.4-22.4 12.8-28.8 22.4-6.4 9.6-12.8 19.2-16 32-3.2 12.8-6.4 25.6-6.4 41.6v3.2h57.6v-3.2c0-6.4 0-12.8 3.2-19.2 0-6.4 3.2-12.8 6.4-16 3.2-3.2 6.4-9.6 9.6-12.8 3.2-3.2 9.6-3.2 16-3.2 9.6 0 16 3.2 22.4 9.6 6.4 6.4 9.6 12.8 9.6 25.6 0 6.4 0 12.8-3.2 16-3.2 6.4-6.4 9.6-12.8 16-3.2 3.2-9.6 9.6-16 12.8-6.4 3.2-12.8 6.4-16 12.8-12.8 3.2-22.4 9.6-32 16-9.6 6.4-19.2 16-25.6 22.4-6.4 9.6-12.8 19.2-16 28.8-3.2 9.6-6.4 22.4-6.4 38.4v6.4H192z m128-448H256v64h64v-64z m0 320H256v64h64v-64z" fill="#D11C1C" p-id="9883"></path></svg>